:FULLY-SPECIFIED
:FORCE-ALL-JOINTS-BE-3DOF
:DEGREES
611
root 5.62139 16.6841 -3.79254 0.124769 52.2113 -7.77918
lfemur -17.9083 24.7067 -22.2913
ltibia 40.2347 -0 0
lfoot -32.9508 25.6616 0.000586907
ltoes 19.3631 -0 0
rfemur -53.3768 -18.0289 27.9277
rtibia 63.394 -0 0
rfoot 8.34202 30.2733 -0.00387017
rtoes -3.95168 0 0
lowerback 3.63486 -3.37034 -4.81165
upperback 0.0858181 -4.67107 1.10054
thorax -1.46881 -2.29758 4.03163
lowerneck -8.44006 -9.29616 -0.444017
upperneck 15.0003 -13.2424 4.34148
head 6.27146 -6.09529 0.375638
lclavicle 9.39252e-14 1.20268e-14 1.07337e-30
lhumerus -22.2611 -42.1497 92.9633
lradius 56.6682 -0 0
lwrist 20.4479 0 0
lhand -10.4693 0.244812 -0.000915142
lfingers 7.12502 -0 0
lthumb 15.5319 29.6438 -0.000312622
rclavicle 9.39252e-14 1.20268e-14 1.07337e-30
rhumerus 22.4757 3.39238 -72.2253
rradius 118.019 -0 0
rwrist -58.9751 0 0
rhand -27.0823 -22.5277 0.00793686
rfingers 7.12502 -0 0
rthumb -0.499593 -52.5054 0.00763402
612
root 5.62916 16.7055 -3.81246 0.645141 50.4221 -7.31955
lfemur -17.7085 24.9996 -22.6649
ltibia 39.718 -0 0
lfoot -33.5074 26.1553 -0.000846842
ltoes 21.253 -0 0
rfemur -53.5955 -18.1908 27.5147
rtibia 65.0472 -0 0
rfoot 8.7693 30.3602 -0.0108728
rtoes -4.78844 0 0
lowerback 3.5296 -3.46526 -4.6345
upperback -0.0233708 -4.78751 1.12345
thorax -1.52277 -2.35368 3.95685
lowerneck -8.62865 -9.05654 -0.269491
upperneck 15.1088 -12.896 3.99428
head 6.29428 -5.9399 0.261991
lclavicle 8.4731e-14 1.41525e-14 2.07461e-30
lhumerus -22.2588 -42.7983 93.4936
lradius 57.2154 -0 0
lwrist 20.3308 0 0
lhand -10.4917 0.0536385 -4.0521e-05
lfingers 7.12502 -0 0
lthumb 15.5104 29.4552 0.000700506
rclavicle 8.4731e-14 1.41525e-14 2.07461e-30
rhumerus 22.1849 2.95794 -72.0426
rradius 116.661 -0 0
rwrist -59.085 0 0
rhand -27.4177 -23.1006 0.0174261
rfingers 7.12502 -0 0
rthumb -0.823491 -53.0759 0.0167626
613
root 5.64169 16.7272 -3.83037 1.15533 48.6608 -6.86402
lfemur -17.4871 25.3265 -23.053
ltibia 39.1746 -0 0
lfoot -34.1202 26.551 -0.00232686
ltoes 23.1463 -0 0
rfemur -53.7091 -18.3032 26.9437
rtibia 66.6423 -0 0
rfoot 9.28305 30.3488 -0.0191367
rtoes -6.12812 0 0
lowerback 3.39907 -3.54963 -4.45791
upperback -0.132529 -4.88873 1.15508
thorax -1.56424 -2.40275 3.88955
lowerneck -8.81739 -8.81925 -0.107422
upperneck 15.2114 -12.5493 3.63951
head 6.31751 -5.7861 0.147762
lclavicle 7.16335e-14 1.63873e-14 2.56022e-30
lhumerus -22.2577 -43.3901 94.0292
lradius 57.8208 -0 0
lwrist 20.2904 0 0
lhand -10.645 -0.200112 0.00143558
lfingers 7.12502 -0 0
lthumb 15.3627 29.2123 0.00201377
rclavicle 7.16335e-14 1.63873e-14 2.56022e-30
rhumerus 21.857 2.5824 -71.839
rradius 115.279 -0 0
rwrist -59.1055 0 0
rhand -27.8644 -23.8261 0.0240379
rfingers 7.12502 -0 0
rthumb -1.25498 -53.7984 0.0231235
614
root 5.6572 16.7488 -3.84566 1.64677 46.942 -6.43457
lfemur -17.2519 25.6284 -23.4259
ltibia 38.6232 -0 0
lfoot -34.7331 26.8482 -0.00304622
ltoes 24.9591 -0 0
rfemur -53.7222 -18.3786 26.2731
rtibia 68.111 -0 0
rfoot 9.81111 30.1934 -0.0255556
rtoes -7.75712 0 0
lowerback 3.24702 -3.62268 -4.28331
upperback -0.24247 -4.97414 1.19684
thorax -1.59557 -2.44428 3.83208
lowerneck -9.0019 -8.5905 0.0425247
upperneck 15.3022 -12.2132 3.2943
head 6.33937 -5.63799 0.0375123
lclavicle 5.67429e-14 1.84041e-14 2.34015e-30
lhumerus -22.2597 -43.948 94.5746
lradius 58.4631 -0 0
lwrist 20.3013 0 0
lhand -10.8755 -0.485242 0.00237883
lfingers 7.12502 -0 0
lthumb 15.1405 28.943 0.00268934
rclavicle 5.67429e-14 1.84041e-14 2.34015e-30
rhumerus 21.4585 2.25918 -71.6003
rradius 113.898 -0 0
rwrist -59.0505 0 0
rhand -28.3678 -24.6228 0.0247295
rfingers 7.12502 -0 0
rthumb -1.74106 -54.5916 0.0237892
615
root 5.6739 16.7698 -3.85774 2.11378 45.2806 -6.05063
lfemur -17.0096 25.8462 -23.7542
ltibia 38.0826 -0 0
lfoot -35.2899 27.0466 -0.00288715
ltoes 26.6078 -0 0
rfemur -53.6399 -18.4289 25.5617
rtibia 69.385 -0 0
rfoot 10.2813 29.8482 -0.0263507
rtoes -9.46183 0 0
lowerback 3.07722 -3.68366 -4.11213
upperback -0.354003 -5.04313 1.25015
thorax -1.61911 -2.47778 3.78681
lowerneck -9.17782 -8.37647 0.180765
upperneck 15.3756 -11.8987 2.97557
head 6.35816 -5.49969 -0.0642116
lclavicle 4.21692e-14 1.98762e-14 1.54903e-30
lhumerus -22.2672 -44.4952 95.1347
lradius 59.121 -0 0
lwrist 20.3382 0 0
lhand -11.1297 -0.770549 0.00221197
lfingers 7.12502 -0 0
lthumb 14.8956 28.6748 0.00230207
rclavicle 4.21692e-14 1.98762e-14 1.54903e-30
rhumerus 20.9556 1.98223 -71.3118
rradius 112.543 -0 0
rwrist -58.9338 0 0
rhand -28.8727 -25.4091 0.0189788
rfingers 7.12502 -0 0
rthumb -2.22872 -55.3743 0.0182577
616
root 5.69003 16.7898 -3.86602 2.55277 43.6917 -5.72978
lfemur -16.7668 25.9202 -24.0086
ltibia 37.5714 -0 0
lfoot -35.7347 27.1454 -0.00193723
ltoes 28.0084 -0 0
rfemur -53.4667 -18.4659 24.8684
rtibia 70.3959 -0 0
rfoot 10.6215 29.2675 -0.0182089
rtoes -11.0287 0 0
lowerback 2.89343 -3.73187 -3.94586
upperback -0.46793 -5.09507 1.31642
thorax -1.63722 -2.50278 3.7561
lowerneck -9.3408 -8.1834 0.307782
upperneck 15.4263 -11.6169 2.70014
head 6.37219 -5.37531 -0.152877
lclavicle 3.00226e-14 2.04766e-14 5.96952e-31
lhumerus -22.2836 -45.0544 95.7151
lradius 59.7732 -0 0
lwrist 20.3755 0 0
lhand -11.3539 -1.02482 0.00112613
lfingers 7.12502 -0 0
lthumb 14.6795 28.4357 0.00111424
rclavicle 3.00226e-14 2.04766e-14 5.96952e-31
rhumerus 20.3146 1.74635 -70.9588
rradius 111.24 -0 0
rwrist -58.7692 0 0
rhand -29.3244 -26.1034 0.00913739
rfingers 7.12502 -0 0
rthumb -2.66493 -56.0652 0.00879099
617
root 5.7038 16.8082 -3.86989 2.96174 42.1909 -5.48836
lfemur -16.5296 25.7905 -24.1604
ltibia 37.1083 0 0
lfoot -36.0114 27.1441 0
ltoes 29.0772 0 0
rfemur -53.2075 -18.5019 24.2519
rtibia 71.0755 0 0
rfoot 10.7592 28.4055 0
rtoes -12.244 0 0
lowerback 2.69943 -3.76662 -3.786
upperback -0.585043 -5.12934 1.39705
thorax -1.65224 -2.51879 3.74232
lowerneck -9.48653 -8.01751 0.424114
upperneck 15.4494 -11.379 2.48474
head 6.37978 -5.26899 -0.223958
lclavicle 2.2413e-14 1.98785e-14 0
lhumerus -22.3131 -45.6486 96.3219
lradius 60.3983 0 0
lwrist 20.388 0 0
lhand -11.4946 -1.21687 0
lfingers 7.12502 0 0
lthumb 14.544 28.2533 0
rclavicle 2.2413e-14 1.98785e-14 0
rhumerus 19.5016 1.54748 -70.5266
rradius 110.013 0 0
rwrist -58.5705 0 0
rhand -29.668 -26.6242 0
rfingers 7.12502 0 0
rthumb -2.99681 -776.583 0
618
root 5.71664 16.8265 -3.86932 3.33739 40.7905 -5.33044
lfemur -16.2969 25.4215 -24.2033
ltibia 36.6972 -0 0
lfoot -36.1067 27.0823 0.00397325
ltoes 29.7743 -0 0
rfemur -52.806 -18.522 23.6719
rtibia 71.3744 -0 0
rfoot 10.6718 27.2075 0.02034
rtoes -13.3146 0 0
lowerback 2.49084 -3.78501 -3.62508
upperback -0.704064 -5.14132 1.50398
thorax -1.66055 -2.52373 3.75301
lowerneck -9.6167 -7.87911 0.529541
upperneck 15.4475 -11.1846 2.32494
head 6.38212 -5.18084 -0.278678
lclavicle 1.99154e-14 1.77944e-14 1.28414e-31
lhumerus -22.3287 -46.2429 96.9639
lradius 60.9877 -0 0
lwrist 20.3845 0 0
lhand -11.5842 -1.36115 -0.000639057
lfingers 7.12502 -0 0
lthumb 14.4577 28.1154 -0.000575691
rclavicle 1.99154e-14 1.77944e-14 1.28414e-31
rhumerus 18.5235 1.37613 -69.9848
rradius 108.876 -0 0
rwrist -58.3875 0 0
rhand -29.9212 -26.9626 -0.00522521
rfingers 7.12502 -0 0
rthumb -3.24132 -56.9186 -0.00503135
619
root 5.73059 16.8455 -3.86483 3.68954 39.4816 -5.23453
lfemur -16.0631 24.8537 -24.1626
ltibia 36.3227 -0 0
lfoot -36.0659 26.9738 0.00917032
ltoes 30.161 -0 0
rfemur -52.2402 -18.5071 23.063
rtibia 71.337 -0 0
rfoot 10.416 25.696 0.0341554
rtoes -14.4991 0 0
lowerback 2.26294 -3.78655 -3.45939
upperback -0.823798 -5.12992 1.63983
thorax -1.65888 -2.5173 3.78857
lowerneck -9.7359 -7.76287 0.623749
upperneck 15.4267 -11.024 2.20402
head 6.38118 -5.10726 -0.321498
lclavicle 2.0846e-14 1.44192e-14 7.762e-31
lhumerus -22.3177 -46.8055 97.6383
lradius 61.5575 -0 0
lwrist 20.3905 0 0
lhand -11.6812 -1.49021 -0.00111552
lfingers 7.12502 -0 0
lthumb 14.3642 27.9932 -0.000978699
rclavicle 2.0846e-14 1.44192e-14 7.762e-31
rhumerus 17.4128 1.23829 -69.3367
rradius 107.811 -0 0
rwrist -58.2247 0 0
rhand -30.1385 -27.188 -0.00737989
rfingers 7.12502 -0 0
rthumb -3.45118 -57.1411 -0.00710917
620
root 5.74484 16.864 -3.85665 4.03459 38.2478 -5.17995
lfemur -15.8289 24.1418 -24.0569
ltibia 35.9748 -0 0
lfoot -35.9212 26.7791 0.0136958
ltoes 30.305 -0 0
rfemur -51.5654 -18.4643 22.4466
rtibia 71.0353 -0 0
rfoot 10.038 23.9409 0.0387402
rtoes -15.6622 0 0
lowerback 2.01902 -3.77428 -3.29607
upperback -0.945142 -5.09984 1.79206
thorax -1.65006 -2.50177 3.84067
lowerneck -9.84421 -7.6666 0.707142
upperneck 15.3872 -10.894 2.12027
head 6.37647 -5.04677 -0.35275
lclavicle 2.39263e-14 1.01491e-14 1.457e-30
lhumerus -22.3078 -47.3637 98.3361
lradius 62.1234 -0 0
lwrist 20.4057 0 0
lhand -11.771 -1.6 -0.00144357
lfingers 7.12502 -0 0
lthumb 14.2777 27.8898 -0.00123624
rclavicle 2.39263e-14 1.01491e-14 1.457e-30
rhumerus 16.1741 1.15365 -68.6179
rradius 106.795 -0 0
rwrist -58.0274 0 0
rhand -30.3207 -27.3367 -0.00692974
rfingers 7.12502 -0 0
rthumb -3.62714 -57.2868 -0.00667817
621
root 5.75855 16.8808 -3.84502 4.38672 37.0724 -5.14815
lfemur -15.5946 23.3404 -23.9045
ltibia 35.6433 -0 0
lfoot -35.7044 26.4589 0.0160598
ltoes 30.2741 -0 0
rfemur -50.8368 -18.4027 21.8442
rtibia 70.5414 -0 0
rfoot 9.58436 22.0121 0.0331905
rtoes -16.6682 0 0
lowerback 1.76233 -3.75132 -3.14222
upperback -1.06901 -5.05582 1.94816
thorax -1.63693 -2.47937 3.90097
lowerneck -9.94165 -7.58809 0.7801
upperneck 15.329 -10.7915 2.07205
head 6.36752 -4.99789 -0.372767
lclavicle 2.7878e-14 5.38053e-15 1.77321e-30
lhumerus -22.3277 -47.9443 99.0492
lradius 62.7012 -0 0
lwrist 20.4295 0 0
lhand -11.8389 -1.68645 -0.00157147
lfingers 7.12502 -0 0
lthumb 14.2123 27.8081 -0.00131817
rclavicle 2.7878e-14 5.38053e-15 1.77321e-30
rhumerus 14.8128 1.14079 -67.8653
rradius 105.809 -0 0
rwrist -57.7414 0 0
rhand -30.4686 -27.4448 -0.00473917
rfingers 7.12502 -0 0
rthumb -3.76995 -57.3921 -0.00456939
622
root 5.77089 16.8946 -3.83018 4.75845 35.9387 -5.1222
lfemur -15.3599 22.5044 -23.7227
ltibia 35.3182 -0 0
lfoot -35.4475 25.9737 0.0151859
ltoes 30.1361 -0 0
rfemur -50.1091 -18.3325 21.2765
rtibia 69.9273 -0 0
rfoot 9.10139 19.9798 0.0198483
rtoes -17.3817 0 0
lowerback 1.49612 -3.72086 -3.00493
upperback -1.19637 -5.00264 2.09561
thorax -1.62233 -2.45234 3.96112
lowerneck -10.0283 -7.52513 0.842985
upperneck 15.2521 -10.7133 2.05772
head 6.35383 -4.95915 -0.381879
lclavicle 3.14228e-14 5.10011e-16 1.54597e-30
lhumerus -22.4077 -48.5736 99.7714
lradius 63.3066 -0 0
lwrist 20.4617 0 0
lhand -11.8704 -1.74552 -0.00141392
lfingers 7.12502 -0 0
lthumb 14.182 27.7512 -0.00116556
rclavicle 3.14228e-14 5.10011e-16 1.54597e-30
rhumerus 13.3351 1.21668 -67.117
rradius 104.83 -0 0
rwrist -57.312 0 0
rhand -30.5829 -27.5484 -0.0019578
rfingers 7.12502 -0 0
rthumb -3.88035 -57.4933 -0.00188997
623
root 5.78104 16.9044 -3.81235 5.16095 34.8296 -5.08654
lfemur -15.1235 21.6886 -23.5284
ltibia 34.9895 -0 0
lfoot -35.1822 25.2842 0.0101999
ltoes 29.9586 -0 0
rfemur -49.4368 -18.2658 20.764
rtibia 69.2651 -0 0
rfoot 8.63506 17.9138 0.00516715
rtoes -17.6671 0 0
lowerback 1.22357 -3.6862 -2.89126
upperback -1.32822 -4.94515 2.22194
thorax -1.60911 -2.42293 4.01281
lowerneck -10.104 -7.47549 0.896138
upperneck 15.1566 -10.6561 2.07569
head 6.3349 -4.92908 -0.380413
lclavicle 3.32823e-14 -4.0661e-15 8.56663e-31
lhumerus -22.5799 -49.2774 100.498
lradius 63.9553 -0 0
lwrist 20.5017 0 0
lhand -11.8508 -1.77314 -0.000894747
lfingers 7.12502 -0 0
lthumb 14.2009 27.722 -0.000726622
rclavicle 3.32823e-14 -4.0661e-15 8.56663e-31
rhumerus 11.7473 1.39632 -66.4122
rradius 103.837 -0 0
rwrist -56.685 0 0
rhand -30.6644 -27.6837 8.82229e-05
rfingers 7.12502 -0 0
rthumb -3.95907 -57.6269 8.23605e-05
